<?xml version="1.0" encoding="utf-8"?>
<!-- Generator: Adobe Illustrator 27.5.0, SVG Export Plug-In . SVG Version: 6.00 Build 0)  -->
<svg version="1.1" xmlns="http://www.w3.org/2000/svg" xmlns:xlink="http://www.w3.org/1999/xlink" x="0px" y="0px"
	 viewBox="0 0 750 500" style="enable-background:new 0 0 750 500;" xml:space="preserve">
<g id="BACKGROUND">
	<g>
		<circle style="fill:#F0EFFF;" cx="511.561" cy="164.048" r="62.029"/>
		<path style="fill:#F0EFFF;" d="M614.097,439.354c13.139-10.052,24.729-21.794,33.369-35.895
			c17.552-28.645,19.607-68.996-2.924-93.916c-25.026-27.68-68.012-26.934-105.146-23.248c-37.134,3.686-79.413,6.574-106.74-18.837
			c-22.281-20.719-27.033-53.759-29.314-84.099s-4.216-62.964-23.142-86.787c-25.474-32.067-76.735-35.938-111.24-13.879
			c-34.505,22.06-52.51,64.369-52.918,105.32c-0.174,17.524,0.884,38.596-13.589,48.478c-11.536,7.877-27.382,4.007-39.776-2.436
			c-12.395-6.442-24.082-15.325-37.926-17.191c-18.429-2.484-36.791,8.693-47.02,24.222c-10.23,15.529-13.522,34.649-14.086,53.235
			c-1.602,52.754,18.489,105.409,53.199,145.032H614.097z"/>
	</g>
</g>
<g id="OBJECTS">
	<g>
		<g>
			
				<line style="fill:none;stroke:#D3C6FC;stroke-width:1.0481;stroke-miterlimit:10;" x1="67.514" y1="438.708" x2="650.089" y2="438.708"/>
			<path style="fill:#8F9AF8;" d="M511.708,432.587H341.031c-6.301,0-11.41,5.108-11.41,11.41h182.086V432.587z"/>
			<path style="fill:#B8C3FF;" d="M567.051,356.086H448.914c-3.278,0-6.24,1.956-7.527,4.971l-32.581,76.332
				c-1.336,3.13,0.961,6.608,4.364,6.608H535.2c3.278,0,6.24-1.956,7.527-4.971l31.053-72.752
				C575.84,361.447,572.299,356.086,567.051,356.086z"/>
			<path style="fill:#FFFFFF;" d="M505.882,401.714c-1.8,7.33-9.201,13.272-16.531,13.272c-7.33,0-11.813-5.942-10.014-13.272
				c1.8-7.33,9.201-13.272,16.531-13.272S507.681,394.384,505.882,401.714z"/>
		</g>
		
			<line style="fill:none;stroke:#D3C6FC;stroke-width:1.0481;stroke-miterlimit:10;" x1="329.302" y1="449.814" x2="536.635" y2="449.814"/>
		
			<line style="fill:none;stroke:#D3C6FC;stroke-width:1.0481;stroke-miterlimit:10;" x1="417.843" y1="455.716" x2="527.78" y2="455.716"/>
	</g>
	<g>
		<g>
			<path style="fill:#FFFFFF;stroke:#BBABF8;stroke-width:1.0481;stroke-miterlimit:10;" d="M612.811,170.662H342.278
				c-12.225,0-22.134,9.91-22.134,22.134v115.1c0,12.224,9.91,22.135,22.134,22.135h104.07l18.64,18.64l18.64-18.64h129.183
				c12.225,0,22.135-9.91,22.135-22.135v-115.1C634.946,180.572,625.036,170.662,612.811,170.662z"/>
			<g>
				<g>
					
						<ellipse transform="matrix(0.9216 -0.3881 0.3881 0.9216 -55.1551 160.9108)" style="fill:#DAE0FF;" cx="370.745" cy="216.988" rx="23.118" ry="23.118"/>
					<polygon style="fill:#FAAF3B;" points="418.928,195.988 423.171,208.712 436.583,208.609 425.793,216.576 430.036,229.3 
						419.125,221.5 408.335,229.467 412.381,216.68 401.47,208.88 414.882,208.776 					"/>
					<polygon style="fill:#FAAF3B;" points="461.648,195.988 465.891,208.712 479.303,208.609 468.513,216.576 472.756,229.3 
						461.845,221.5 451.055,229.467 455.101,216.68 444.189,208.88 457.602,208.776 					"/>
					<polygon style="fill:#FAAF3B;" points="504.368,195.988 508.611,208.712 522.023,208.609 511.233,216.576 515.476,229.3 
						504.565,221.5 493.775,229.467 497.821,216.68 486.909,208.88 500.322,208.776 					"/>
					<polygon style="fill:#E8ECFF;" points="547.088,195.988 551.331,208.712 564.743,208.609 553.953,216.576 558.196,229.3 
						547.284,221.5 536.495,229.467 540.541,216.68 529.629,208.88 543.042,208.776 					"/>
					<polygon style="fill:#E8ECFF;" points="589.807,195.988 594.05,208.712 607.463,208.609 596.673,216.576 600.916,229.3 
						590.004,221.5 579.214,229.467 583.261,216.68 572.349,208.88 585.761,208.776 					"/>
				</g>
				<g>
					<g>
						<rect x="346.403" y="250.423" style="fill:#BBABF8;" width="20.419" height="5.456"/>
						<rect x="371.863" y="250.423" style="fill:#BBABF8;" width="30.614" height="5.456"/>
					</g>
					<g>
						<g>
							<rect x="346.403" y="266.632" style="fill:#E6DFFC;" width="44.04" height="5.456"/>
							<rect x="408.389" y="266.632" style="fill:#E6DFFC;" width="103.043" height="5.456"/>
							<rect x="529.378" y="266.632" style="fill:#E6DFFC;" width="79.309" height="5.456"/>
						</g>
						<g>
							<rect x="346.403" y="283.999" style="fill:#E6DFFC;" width="98.456" height="5.456"/>
							<rect x="559.481" y="283.999" style="fill:#E6DFFC;" width="49.206" height="5.456"/>
							<rect x="461.647" y="283.999" style="fill:#E6DFFC;" width="86.255" height="5.456"/>
						</g>
						<g>
							<rect x="346.403" y="301.366" style="fill:#E6DFFC;" width="125.664" height="5.456"/>
						</g>
					</g>
				</g>
			</g>
		</g>
		<g>
			<path style="fill:#FFFFFF;stroke:#BBABF8;stroke-width:1.0481;stroke-miterlimit:10;" d="M667.188,83.13H490.607
				c-7.979,0-14.448,6.468-14.448,14.448v35.334c0,7.979,6.468,14.448,14.448,14.448h176.582c7.979,0,14.448-6.469,14.448-14.448
				V97.578C681.636,89.599,675.168,83.13,667.188,83.13z"/>
			<polygon style="fill:#FAAF3B;" points="544.073,104.319 546.843,112.624 555.597,112.556 548.555,117.757 551.324,126.062 
				544.202,120.971 537.159,126.171 539.8,117.824 532.678,112.733 541.432,112.666 			"/>
			<polygon style="fill:#FAAF3B;" points="571.957,104.319 574.727,112.624 583.481,112.556 576.439,117.757 579.208,126.062 
				572.086,120.971 565.043,126.171 567.684,117.824 560.562,112.733 569.316,112.666 			"/>
			<polygon style="fill:#FAAF3B;" points="599.841,104.319 602.611,112.624 611.365,112.556 604.323,117.757 607.092,126.062 
				599.97,120.971 592.927,126.171 595.568,117.824 588.446,112.733 597.2,112.666 			"/>
			<polygon style="fill:#FAAF3B;" points="627.725,104.319 630.495,112.624 639.249,112.556 632.207,117.757 634.976,126.062 
				627.854,120.971 620.811,126.171 623.452,117.824 616.33,112.733 625.084,112.666 			"/>
			<polygon style="fill:#E8ECFF;" points="655.609,104.319 658.379,112.624 667.133,112.556 660.091,117.757 662.86,126.062 
				655.738,120.971 648.695,126.171 651.336,117.824 644.214,112.733 652.968,112.666 			"/>
			<g>
				
					<ellipse transform="matrix(0.1595 -0.9872 0.9872 0.1595 316.0448 596.018)" style="fill:#DAE0FF;" cx="508.06" cy="112.398" rx="12.884" ry="12.884"/>
				<g>
					<rect x="492.538" y="127.935" style="fill:#BBABF8;" width="11.38" height="3.041"/>
					<rect x="506.727" y="127.935" style="fill:#BBABF8;" width="17.061" height="3.041"/>
				</g>
			</g>
		</g>
		<g>
			<path style="fill:#FFFFFF;stroke:#BBABF8;stroke-width:1.0481;stroke-miterlimit:10;" d="M213.289,141.888H92.041
				c-5.479,0-9.92,4.441-9.92,9.92v24.262c0,5.479,4.441,9.92,9.92,9.92h121.248c5.479,0,9.92-4.442,9.92-9.92v-24.262
				C223.21,146.329,218.768,141.888,213.289,141.888z"/>
			<polygon style="fill:#FAAF3B;" points="128.754,156.437 130.656,162.139 136.667,162.093 131.831,165.663 133.732,171.366 
				128.842,167.87 124.006,171.441 125.82,165.71 120.929,162.214 126.94,162.168 			"/>
			<polygon style="fill:#FAAF3B;" points="147.9,156.437 149.802,162.139 155.813,162.093 150.977,165.663 152.879,171.366 
				147.988,167.87 143.152,171.441 144.966,165.71 140.076,162.214 146.087,162.168 			"/>
			<polygon style="fill:#FAAF3B;" points="167.046,156.437 168.948,162.139 174.959,162.093 170.123,165.663 172.025,171.366 
				167.134,167.87 162.299,171.441 164.112,165.71 159.222,162.214 165.233,162.168 			"/>
			<polygon style="fill:#FAAF3B;" points="186.192,156.437 188.094,162.139 194.105,162.093 189.27,165.663 191.171,171.366 
				186.281,167.87 181.445,171.441 183.258,165.71 178.368,162.214 184.379,162.168 			"/>
			<polygon style="fill:#E8ECFF;" points="205.339,156.437 207.24,162.139 213.251,162.093 208.416,165.663 210.317,171.366 
				205.427,167.87 200.591,171.441 202.405,165.71 197.514,162.214 203.525,162.168 			"/>
			<g>
				
					<ellipse transform="matrix(0.1621 -0.9868 0.9868 0.1621 -72.6777 238.3784)" style="fill:#DAE0FF;" cx="104.025" cy="161.984" rx="8.847" ry="8.847"/>
				<g>
					<rect x="93.367" y="172.653" style="fill:#BBABF8;" width="7.814" height="2.088"/>
					<rect x="103.11" y="172.653" style="fill:#BBABF8;" width="11.715" height="2.088"/>
				</g>
			</g>
		</g>
	</g>
	<g>
		<g>
			<circle style="fill:#FF7AA9;" cx="623.111" cy="376.882" r="26.922"/>
			<path style="fill:#FFFFFF;" d="M631.187,366.728c-4.474,0-8.075,3.627-8.075,8.101c0-4.474-3.601-8.101-8.075-8.101
				c-4.474,0-8.101,3.627-8.101,8.101c0,10.093,16.176,18.554,16.176,18.554s16.176-8.46,16.176-18.554
				C639.288,370.355,635.661,366.728,631.187,366.728z"/>
		</g>
		<g>
			
				<ellipse transform="matrix(0.1615 -0.9869 0.9869 0.1615 -165.3593 342.3134)" style="fill:#FF7AA9;" cx="118.771" cy="268.47" rx="26.922" ry="26.922"/>
			<path style="fill:#FFFFFF;" d="M126.846,258.316c-4.474,0-8.075,3.627-8.075,8.101c0-4.474-3.601-8.101-8.075-8.101
				s-8.101,3.627-8.101,8.101c0,10.093,16.176,18.554,16.176,18.554s16.176-8.46,16.176-18.554
				C134.947,261.943,131.32,258.316,126.846,258.316z"/>
		</g>
		<g>
			<polygon style="fill:#BBABF8;" points="265.659,79.249 272.193,99.358 293.337,99.358 276.231,111.786 282.765,131.895 
				265.659,119.467 248.553,131.895 255.087,111.786 237.981,99.358 259.125,99.358 			"/>
			<polygon style="fill:#BBABF8;" points="297.927,127.443 302.917,142.8 319.064,142.8 306.001,152.292 310.991,167.648 
				297.927,158.157 284.864,167.648 289.854,152.292 276.79,142.8 292.938,142.8 			"/>
			<polygon style="fill:#BBABF8;" points="276.832,174.025 279.733,182.955 289.122,182.955 281.526,188.473 284.428,197.403 
				276.832,191.884 269.236,197.403 272.137,188.473 264.541,182.955 273.93,182.955 			"/>
		</g>
		<g>
			
				<ellipse transform="matrix(0.7071 -0.7071 0.7071 0.7071 10.4862 535.5076)" style="fill:#BBABF8;" cx="651.658" cy="255.096" rx="34.788" ry="34.788"/>
			<polygon style="fill:#FFFFFF;" points="634.004,237.961 634.004,250.005 658.408,255.615 634.004,261.225 634.004,273.269 
				679.177,255.615 			"/>
		</g>
		<g>
			<path style="fill:#BBABF8;" d="M445.746,95.101c0.009,28.108-22.844,50.98-50.746,50.922
				c-28.341-0.059-48.019-21.735-50.674-44.602c-1.758-15.142,2.297-28.611,12.262-40.03C366.636,49.877,379.613,43.972,394.91,44
				C422.662,44.05,445.911,66.542,445.746,95.101z"/>
			<g>
				<path style="fill:#FDFDFE;" d="M401.979,114.151c-4.491,0-8.982,0.006-13.472-0.003c-1.615-0.004-2.207-0.522-2.194-2.137
					c0.056-7.004-0.321-14.019,0.196-21.01c0.332-4.495,2.109-8.523,4.888-12.088c1.88-2.413,3.846-4.752,6.042-6.886
					c0.709-0.69,1.067-1.471,1.051-2.472c-0.019-1.199,0.098-2.4,0.069-3.598c-0.035-1.498,0.456-2.741,1.862-3.307
					c1.465-0.59,2.899-0.288,4.087,0.822c1.157,1.081,1.607,2.53,1.965,4c0.92,3.777,0.207,7.363-1.347,10.839
					c-0.52,1.164-0.994,2.351-1.576,3.483c-0.381,0.741-0.086,1.001,0.573,1.106c0.341,0.054,0.695,0.03,1.043,0.029
					c4.026-0.008,8.052-0.021,12.079-0.026c2.189-0.003,3.687,1.045,4.207,2.925c0.582,2.105-0.259,4.518-2.029,5.463
					c-0.796,0.425-0.772,0.605-0.077,1.093c1.471,1.032,2.452,2.341,2.151,4.297c-0.227,1.475-0.958,2.495-2.411,2.96
					c-0.275,0.088-0.697,0.062-0.75,0.424c-0.056,0.375,0.384,0.436,0.613,0.607c1.933,1.442,2.192,5.286-0.646,6.461
					c-0.546,0.226-0.788,0.36-0.211,0.913c1.248,1.197,1.26,2.727,0.677,4.194c-0.566,1.424-1.843,1.86-3.318,1.855
					c-4.491-0.016-8.981-0.006-13.472-0.006C401.979,114.11,401.979,114.131,401.979,114.151z"/>
				<path style="fill:#FDFDFE;" d="M380.884,118.157c-3.713,0.011-7.426,0.017-11.139,0.038c-1.106,0.006-1.619-0.612-1.736-1.621
					c-0.062-0.535-0.028-1.082-0.028-1.623c0.002-7.776,0.002-15.551,0.013-23.326c0.003-1.919,0.484-2.385,2.417-2.389
					c3.327-0.006,6.654-0.011,9.98,0.003c1.334,0.006,2.018,0.587,2.019,1.858c0.009,8.161-0.018,16.322-0.035,24.483
					c0,0.037-0.022,0.074-0.033,0.111c-0.209,0.066-0.184,0.14-0.009,0.221c0.065,0.879,0.039,1.716-0.974,2.094
					c-0.03-0.244-0.114-0.514-0.4-0.429C380.631,117.673,380.929,117.961,380.884,118.157z"/>
			</g>
		</g>
	</g>
	<g>
		<defs>
			<rect id="SVGID_1_" x="67.115" y="206.76" width="359.517" height="232.657"/>
		</defs>
		<clipPath id="SVGID_00000148639292673070361210000005847225616252911505_">
			<use xlink:href="#SVGID_1_"  style="overflow:visible;"/>
		</clipPath>
		<g style="clip-path:url(#SVGID_00000148639292673070361210000005847225616252911505_);">
			<path style="fill:#452828;" d="M262.54,242.98c1.421,7.155,1.029,14.53,1.576,21.804c0.547,7.274,2.209,14.827,6.99,20.336
				c4.054,4.671,10.126,7.612,13.018,13.079c2.199,4.156,2.16,9.273,0.522,13.68c-1.637,4.407-4.746,8.152-8.354,11.166
				c-12.419,10.379-31.016,12.048-45.719,5.283c-14.703-6.766-25.274-21.182-28.749-36.99c-3.475-15.808-0.214-32.723,7.581-46.907
				c4.403-8.012,10.46-15.45,18.627-19.56c6.751-3.398,16.9-4.68,23.723-0.571C257.604,227.823,261.29,236.689,262.54,242.98z"/>
			<g>
				<g>
					<g>
						<path style="fill:#915046;" d="M379.581,405.534c0,0-2.64,5.68-9.358,2.29l-4.396,8.304l10.96,5.802l7.959-15.035
							l-3.147-14.811c0,0-2.975,1.172-2.893,4.354C378.787,399.62,379.581,405.534,379.581,405.534z"/>
						<path style="fill:#994F39;" d="M389.597,424.951c0.052-3.457-1.808-6.692-4.908-8.332l-11.479-6.076l-2.371,4.479
							L389.597,424.951z"/>
						<path style="fill:#AB6955;" d="M392.814,430.095c0.052-3.457-1.808-6.691-4.908-8.332l-13.176-6.975l-2.371,4.479
							L392.814,430.095z"/>
						<polygon style="fill:#FAAF3B;" points="377.383,377.971 381.21,389.448 393.307,389.354 383.575,396.54 387.402,408.017 
							377.561,400.982 367.828,408.168 371.478,396.634 361.636,389.599 373.733,389.505 						"/>
						<path style="fill:#B57A68;" d="M369.989,407.716l0.559-4.021l4.645-3.664c1.408-1.111,2.233-2.803,2.24-4.596l0.002-0.454
							l-14.171,5.055l-6.176,7.311l-3.984,7.527l21.418,11.338l1.455-2.748c2.872-5.426,0.802-12.153-4.624-15.025L369.989,407.716z
							"/>
						<path style="fill:#B57A68;" d="M389.564,434.173c0.052-3.457-1.808-6.691-4.908-8.332l-13.176-6.975l-2.371,4.479
							L389.564,434.173z"/>
						
							<path style="fill:none;stroke:#A15545;stroke-width:1.8647;stroke-linecap:round;stroke-linejoin:round;stroke-miterlimit:10;" d="
							M369.802,407.313c-1.344,2.069-3.063,3.893-5.048,5.358"/>
					</g>
					<polygon style="fill:#B57A68;" points="293.2,407.236 358.42,408.294 358.166,417.243 280.556,429.095 					"/>
				</g>
				<path style="fill:#383757;" d="M232.819,323.469h19.132c9.027,0,17.054,5.739,19.975,14.28l27.8,81.301
					c0,0-1.934,15.042-13.695,16.423c-4.418,0.519-8.668-1.902-10.742-5.837l-42.47-80.576V323.469z"/>
				<g>
					<path style="fill:#383757;" d="M281.296,405.905l62.929,2.121l-20.719,26.164l-39.761,2.377
						c-5.258,0.314-9.289-4.6-7.952-9.695l2.602-9.916L281.296,405.905z"/>
					<path style="fill:none;stroke:#474463;stroke-width:1.8647;stroke-linecap:round;stroke-miterlimit:10;" d="M293.2,407.236
						c-5.145,3.11-10.937,7.891-13.608,13.277"/>
					<path style="fill:none;stroke:#474463;stroke-width:1.8647;stroke-linecap:round;stroke-miterlimit:10;" d="M293.2,407.236
						c-6.668,0.264-14.891,1.155-19.762,5.716"/>
				</g>
			</g>
			<g>
				<path style="fill:#FFFFFF;" d="M247.08,499.963c-10.243,1.049-20.904,0.782-31.151-0.201
					c-16.354-1.568-30.795-9.303-44.905-17.142c-2.037-1.132-4.091-2.294-6.143-3.477c7.438-11.774,16.906-23.918,27.792-31.621
					h54.36l17.616,48.168C259.196,498.243,252.846,499.372,247.08,499.963z"/>
				<path style="fill:#474463;" d="M184.082,444.986l-15.785-108.831l7.925-12.832h72.309l19.874,53.54
					c0,0-16.615,51.508-16.615,70.616l18.295,53.116l-21.6,8.308l-16.633-51.039l-18.277,50.677l-56.908-23.677L184.082,444.986z"/>
				<polygon style="fill:#383757;" points="168.298,336.155 176.324,323.16 186.675,323.16 189.724,349.06 179.742,415.062 				"/>
				<polygon style="fill:#FFFFFF;" points="245.166,323.683 245.166,384.929 193.864,323.683 				"/>
				<path style="fill:#B57A68;" d="M213.72,338.414c-3.604-0.858-7.108-2.068-10.495-3.555l-9.799-11.698h51.74v8.988
					C237.917,340.702,224.208,340.91,213.72,338.414z"/>
				<polygon style="fill:#615F7F;" points="193.426,323.16 193.426,361.418 215.366,361.418 203.18,387.143 246.747,386.827 				"/>
				<polygon style="fill:#615F7F;" points="245.166,323.16 248.471,323.16 274.116,361.418 253.862,361.418 275.721,387.143 
					246.747,387.143 245.464,387.143 				"/>
				<path style="fill:none;stroke:#383757;stroke-width:1.8647;stroke-miterlimit:10;" d="M245.403,387.081
					c-4.941,23.335-8.562,46.96-13.502,70.295"/>
				<path style="fill:none;stroke:#383757;stroke-width:1.8647;stroke-miterlimit:10;" d="M256.168,462.243
					c-4.229,1.411-8.699,2.101-13.157,2.03"/>
				<path style="fill:none;stroke:#383757;stroke-width:1.8647;stroke-miterlimit:10;" d="M208.384,463.702
					c-8.12-0.424-16.149-2.51-23.447-6.094"/>
			</g>
			<path style="fill:#474463;" d="M189.724,323.148h-19.132c-9.027,0-17.054,5.739-19.975,14.28l-27.8,81.301
				c0,0,0.317,6.02,3.111,11.163c4.439,8.168,15.433,10.254,19.807,2.051l43.988-83.203V323.148z"/>
			<g>
				<path style="fill:#915046;" d="M216.331,410.515l5.251,4.545l12.565,2.878l-0.063-0.45c-0.248-1.776-1.293-3.342-2.837-4.253
					l-3.15-2.526l0.907-3.482l5.291-4.392l-6.412-5.546l-13.691,9.012L216.331,410.515z"/>
				<polygon style="fill:#FAAF3B;" points="228.568,401.579 237.319,409.932 247.968,404.189 242.728,415.094 251.48,423.446 
					239.49,421.833 234.251,432.737 232.08,420.836 220.09,419.223 230.738,413.48 				"/>
				<path style="fill:#915046;" d="M236.46,406.009c0,0-2.698-4.211-7.65-0.808l-4.369-6.099l8.936-6.244l7.91,11.042l-1.771,10.141
					c0,0-2.479-0.608-2.756-3.135C236.484,408.379,236.46,406.009,236.46,406.009z"/>
				<path style="fill:#B57A68;" d="M216.893,411.465l-5.216-6.993l19.395-14.992l1.811,2.528c3.575,4.991,3.4,9.484,0.322,11.909
					l-4.202,3.31L216.893,411.465z"/>
				<path style="fill:#B57A68;" d="M245.393,395.943c0.564-0.139,1.032,0.431,0.803,0.965c-0.92,2.145-2.791,3.79-5.133,4.365
					l-11.834,2.909l-0.989-4.023L245.393,395.943z"/>
				<path style="fill:#B57A68;" d="M243.783,379.209c0.558-0.449,1.378-0.056,1.401,0.66c0.091,2.876-1.141,5.689-3.457,7.553
					l-11.702,9.422l-3.203-3.978L243.783,379.209z"/>
				<path style="fill:#B57A68;" d="M246.269,387.456c0.641-0.319,1.358,0.24,1.227,0.944c-0.527,2.829-2.333,5.312-4.995,6.637
					l-11.717,5.833l-2.276-4.572L246.269,387.456z"/>
			</g>
			<g>
				<path style="fill:#474463;" d="M143.325,402.276l64.186-0.374l-19.978,27.855l-49.742,7.485
					c-6.432,0.968-11.887-4.671-10.747-11.076C128.872,415.9,133.181,403.112,143.325,402.276z"/>
				
					<line style="fill:none;stroke:#383757;stroke-width:1.8647;stroke-linecap:round;stroke-miterlimit:10;" x1="160.754" y1="402.229" x2="139.739" y2="402.658"/>
				
					<line style="fill:none;stroke:#383757;stroke-width:1.8647;stroke-linecap:round;stroke-miterlimit:10;" x1="160.757" y1="402.184" x2="138.827" y2="408.025"/>
			</g>
			<g>
				<path style="fill:#B57A68;" d="M206.047,271.965l2.264,56.457c0.091,2.271,1.959,4.066,4.232,4.066h27.792
					c3.461,0,5.133-4.188,2.659-6.607c-5.329-5.21-10.731-14.152-10.731-28.995v-23.789L206.047,271.965z"/>
				<path style="fill:#915046;" d="M218.873,272.519l13.391,0.579v23.789c0,6.526,1.048,11.906,2.672,16.335
					C219.546,307.987,214.355,287.368,218.873,272.519z"/>
			</g>
			<g>
				<g>
					<g>
						<path style="fill:#B57A68;" d="M212.907,293.113c-1.878-1.268-3.717-2.807-5.475-4.516
							c-8.923-8.673-14.247-20.403-15.498-32.783c-1.163-11.511,1.147-22.962,10.701-30.56c10.229-8.135,26.178-8.846,37.698-3.202
							c11.019,5.398,17.078,15.665,19.332,27.422c1.118,5.832,1.435,11.791,1.514,17.718c0.149,11.101-1.574,32.425-14.334,35.083
							C233.067,305.112,223.014,299.938,212.907,293.113z"/>
					</g>
					<path style="fill:#452828;" d="M255.648,244.551c3.663,5.235,4.71,11.805,5.66,18.124c2.283-8.102,2.287-16.834,0.01-24.937
						c-1.065-3.792-2.664-7.515-5.292-10.448c-2.628-2.933-6.4-5.002-10.338-4.936c-6.156,0.103-13.559,8.585-7.203,13.709
						c1.942,1.565,5.244,1.244,7.547,1.861C249.915,238.965,253.327,241.235,255.648,244.551z"/>
					<path style="fill:#452828;" d="M240.903,249.216c-4.161,3.775-9.298,6.273-14.788,7.433
						c-5.625,1.188-12.442,0.859-16.671,5.362c-12.849,13.682-2.02,30.118,4.528,43.918c3.297,6.948,6.71,15.016,4.92,22.847
						c-2.291,10.02-12.06,14.781-21.664,14.821c-15.628,0.065-27.741-11.545-30.861-26.474c-1.615-7.73-0.506-15.443,2.494-22.675
						c2.761-6.658,7.208-12.536,9.421-19.434c3.541-11.037-1.474-22.67,2.107-33.888c7.116-22.293,41.39-44.18,62.286-26.01
						C254.73,225.6,250.809,240.23,240.903,249.216z"/>
					<path style="fill:#452828;" d="M210.265,254.129c-2.811,2.67-4.646,6.424-5.046,10.277c-0.457,4.409,0.736,8.81,2.926,12.694
						l2.859-0.502c0.301-5.015,1.566-10.017,3.146-14.72c0.725-2.158,1.592-4.304,2.626-6.367
						C215.923,251.554,212.807,251.714,210.265,254.129z"/>
				</g>
				<g>
					<path style="fill:none;stroke:#915046;stroke-width:1.2164;stroke-linecap:round;stroke-miterlimit:10;" d="M248.078,265.343
						c0.828,3.707,2.337,7.262,4.429,10.432c0.732,1.109,1.576,2.362,1.265,3.654c-0.292,1.216-1.494,1.953-2.589,2.557"/>
					<g>
						<path style="fill:#FF7A7A;" d="M243.778,289.432c0.302,1.721,1.942,2.871,3.663,2.569c1.721-0.302,2.871-1.942,2.569-3.663
							c-0.302-1.721-1.942-2.871-3.663-2.569C244.627,286.071,243.476,287.711,243.778,289.432z"/>
						<path style="fill:none;stroke:#915046;stroke-width:1.2164;stroke-linecap:round;stroke-miterlimit:10;" d="M251.708,287.098
							c-3.29,1.958-7.523,2.237-11.042,0.729"/>
					</g>
					<g>
						<path style="fill:none;stroke:#452828;stroke-width:1.8231;stroke-linecap:round;stroke-miterlimit:10;" d="M259.194,255.181
							c-2.837-1.587-5.798-1.199-8.016,1.05"/>
					</g>
					<g>
						<path style="fill:none;stroke:#452828;stroke-width:1.8231;stroke-linecap:round;stroke-miterlimit:10;" d="M237.057,258.061
							c-3.968-1.267-8.2-0.572-11.54,1.896"/>
					</g>
					<path style="fill:#452828;" d="M236.346,266.847c0.27,1.536-0.757,2.999-2.293,3.269c-1.536,0.27-3-0.757-3.269-2.293
						c-0.27-1.536,0.757-3,2.293-3.269C234.613,264.284,236.077,265.311,236.346,266.847z"/>
					
						<ellipse transform="matrix(0.1626 -0.9867 0.9867 0.1626 -47.7485 473.4619)" style="fill:#452828;" cx="255.053" cy="264.861" rx="2.824" ry="2.824"/>
				</g>
				<g>
					<path style="fill:#B57A68;" d="M207.495,270.334c-1.928-1.639-4.697-2.529-7.045-1.584c-1.889,0.76-3.21,2.606-3.667,4.59
						c-0.457,1.984-0.137,4.083,0.546,6.001c2.175,6.113,8.267,10.621,14.749,10.916c1.341,0.061,0.605-10.674,0.406-11.698
						C211.888,275.494,209.862,272.347,207.495,270.334z"/>
					<path style="fill:#FFFFFF;" d="M210.192,287.386c0.266,1.518-0.748,2.964-2.266,3.231c-1.518,0.266-2.964-0.748-3.231-2.266
						c-0.266-1.518,0.748-2.964,2.266-3.231C208.479,284.853,209.925,285.868,210.192,287.386z"/>
					<path style="fill:none;stroke:#915046;stroke-width:1.2164;stroke-linecap:round;stroke-miterlimit:10;" d="M200.936,273.09
						c1.107-0.937,2.77-1.05,4.103-0.479c1.333,0.571,2.347,1.738,2.97,3.048c0.622,1.31,0.887,2.76,1.04,4.202
						c-0.712-0.673-1.911-0.751-2.704-0.175c-0.793,0.576-1.09,1.74-0.67,2.625c0.42,0.885,1.509,1.392,2.457,1.143"/>
				</g>
			</g>
		</g>
	</g>
</g>
</svg>
