<!DOCTYPE svg PUBLIC "-//W3C//DTD SVG 1.1//EN" "http://www.w3.org/Graphics/SVG/1.1/DTD/svg11.dtd">
<!-- Uploaded to: SVG Repo, www.svgrepo.com, Transformed by: SVG Repo Mixer Tools -->
<svg width="256px" height="256px" viewBox="-205 -205 2460.00 2460.00" data-name="Layer 2" id="Layer_2" xmlns="http://www.w3.org/2000/svg" fill="#000000">
<g id="SVGRepo_bgCarrier" stroke-width="0">
<path transform="translate(-205, -205), scale(76.875)" d="M16,24.311828635632992C18.215630019643278,24.878407902873562,19.196635106966216,28.216258851686405,21.481564275575533,28.311794941462267C23.342957886789602,28.38962241620075,24.500563899593395,26.158115580360942,25.680759206043895,24.71659474099547C26.832867959722556,23.309379538082926,27.56246429637224,21.659902940608163,28.29163852715151,19.993795456446758C29.07344322259815,18.207431376020985,30.338252921845637,16.45364564088559,30.14630494243184,14.513163437190643C29.954371124999483,12.572824402874375,28.747327678182167,10.75610631199019,27.253871372050753,9.502574333921078C25.827388015081212,8.30525607505844,23.814076940464965,8.234442932864903,22.029851527409406,7.700621374548206C20.68217368510094,7.297410277662216,19.201230433415773,7.408214241039213,17.971387228206947,6.725352288736342C16.14819632796739,5.713038123576555,15.269428309275234,2.9867987428294116,13.192980061177016,2.7940094779070037C11.348983046358532,2.6228023075228784,10.033628410614027,4.648315544825174,8.631542242585736,5.858187960939436C7.301830122120878,7.005608178475434,6.311570234173598,8.418672954714893,5.14904026430459,9.735195475630457C3.760565586850885,11.307592084721529,1.4145003179172357,12.362070511644761,1.0623747525482372,14.42999232168131C0.7158007786791765,16.46531139487566,2.7032258007013645,18.1500441353607,3.384275874145425,20.099097250730814C4.050588261306547,22.005973535816114,3.3920808965500333,24.708062765549055,5.054652925333741,25.855234772273022C6.8811804034973765,27.115535773483984,9.44164545746242,26.10472781105694,11.639041840417772,25.794872395879317C13.176206906340896,25.578116364335497,14.496023372463917,23.927232846615144,16,24.311828635632992" fill="#6ee56c" strokewidth="0"/>
</g>
<g id="SVGRepo_tracerCarrier" stroke-linecap="round" stroke-linejoin="round"/>
<g id="SVGRepo_iconCarrier">
<defs>
<style>.cls-1{fill:#c8c2e9;}.cls-2{fill:#4d4c78;}.cls-3{fill:#ffffff;}.cls-4{fill:#8a87b2;}.cls-5{fill:#323150;}.cls-6{fill:#64639c;}.cls-7{fill:#dfdafd;}</style>
</defs>
<title/>
<rect class="cls-1" height="1528.11" rx="172.5" ry="172.5" width="1832.6" x="108.7" y="260.9"/>
<path class="cls-2" d="M1941.3,497.2V433.5c0-95.3-77.2-172.6-172.5-172.6H281.2c-95.3,0-172.5,77.3-172.5,172.6v63.7Z"/>
<circle class="cls-3" cx="257.1" cy="380.9" r="35"/>
<circle class="cls-3" cx="381.9" cy="380.9" r="35"/>
<circle class="cls-3" cx="506.7" cy="380.9" r="35"/>
<path class="cls-4" d="M1854.9,1703.7H367.3c-95.3,0-172.6-77.3-172.6-172.5V348.1a171.6,171.6,0,0,1,15.8-72A172.5,172.5,0,0,0,108.7,433.5v1183c0,95.3,77.2,172.6,172.5,172.6H1768.8a172.5,172.5,0,0,0,156.8-100.6A170.5,170.5,0,0,1,1854.9,1703.7Z"/>
<path class="cls-5" d="M194.7,348.1a171.6,171.6,0,0,1,15.8-72A172.5,172.5,0,0,0,108.7,433.5v63.7h86Z"/>
<rect class="cls-6" height="154.97" rx="77.5" ry="77.5" width="466.3" x="1337.5" y="260.9"/>
<rect class="cls-7" height="646.26" rx="97.3" ry="97.3" width="194.7" x="1746.7" y="664.7"/>
<path class="cls-2" d="M984,708.3,383.6,944.4c-14.1,5.5-14.1,25.4,0,30.9l635.3,249.8a16.1,16.1,0,0,0,12.2,0l635.3-249.8c14.1-5.5,14.1-25.4,0-30.9L1066,708.3A111.7,111.7,0,0,0,984,708.3Z"/>
<polygon class="cls-5" points="807.5 930.4 608.4 1063.7 804.3 1140.7 807.5 930.4"/>
<polygon class="cls-5" points="1242.5 930.4 1441.6 1063.7 1245.7 1140.7 1242.5 930.4"/>
<path class="cls-2" d="M1323.1,1388.4H726.9l55.2-430.2a32.7,32.7,0,0,1,25.4-27.8q237.8-52.9,436.2-.7a32.7,32.7,0,0,1,24.1,27.5Z"/>
<path class="cls-5" d="M876.1,1025.8A32.7,32.7,0,0,1,901.5,998q198.4-44.2,369.6-15.1l-3.3-25.7a32.7,32.7,0,0,0-24.1-27.5q-198.5-52.2-436.2.7a32.7,32.7,0,0,0-25.4,27.8l-55.2,430.2H829.5Z"/>
<ellipse class="cls-5" cx="1025" cy="1388.4" rx="298.1" ry="36.7"/>
<path class="cls-5" d="M1469.3,1320a14.8,14.8,0,0,1-14.9-14.8V883.1a14.9,14.9,0,1,1,29.7,0v422.1A14.8,14.8,0,0,1,1469.3,1320Z"/>
<path class="cls-2" d="M1467.1,1466a51.4,51.4,0,0,1-51.4-51.4v-82.7a51.5,51.5,0,1,1,102.9,0v82.7A51.5,51.5,0,0,1,1467.1,1466Z"/>
<path class="cls-5" d="M1441.6,1442.8v-82.7a51.6,51.6,0,0,1,73.7-46.4,51.5,51.5,0,0,0-99.6,18.2v82.7A51.4,51.4,0,0,0,1445,1461,50.3,50.3,0,0,1,1441.6,1442.8Z"/>
<rect class="cls-6" height="282.25" rx="44.8" ry="44.8" transform="translate(-155.4 190.1) rotate(-8.2)" width="89.7" x="1202.4" y="1037.2"/>
<rect class="cls-6" height="282.25" rx="44.8" ry="44.8" transform="translate(37.5 1705.6) rotate(-70.1)" width="89.7" x="1190.7" y="684.9"/>
<rect class="cls-6" height="84.82" rx="21.1" ry="21.1" width="42.3" x="1475.3" y="1340.3"/>
</g>
</svg>